<mxfile host="app.diagrams.net" modified="2024-01-09T01:28:36.566Z" agent="Mozilla/5.0 (Windows NT 10.0; Win64; x64) AppleWebKit/537.36 (KHTML, like Gecko) Chrome/120.0.0.0 Safari/537.36" etag="BUUZY8VWuWffaLFVwmMO" version="22.1.17" type="github">
  <diagram name="Trang-1" id="9oz_cp8mpT5kgkalhsPz">
    <mxGraphModel dx="3500" dy="1740" grid="1" gridSize="10" guides="1" tooltips="1" connect="1" arrows="1" fold="1" page="1" pageScale="1" pageWidth="827" pageHeight="1169" math="0" shadow="0">
      <root>
        <mxCell id="0" />
        <mxCell id="1" parent="0" />
        <mxCell id="ICcRbH34Lm_vVGwZh7KH-1" style="edgeStyle=orthogonalEdgeStyle;rounded=0;orthogonalLoop=1;jettySize=auto;html=1;exitX=0.5;exitY=1;exitDx=0;exitDy=0;entryX=0.5;entryY=0;entryDx=0;entryDy=0;" edge="1" parent="1" source="ICcRbH34Lm_vVGwZh7KH-3" target="ICcRbH34Lm_vVGwZh7KH-5">
          <mxGeometry relative="1" as="geometry" />
        </mxCell>
        <mxCell id="ICcRbH34Lm_vVGwZh7KH-2" value="CÓC" style="edgeLabel;html=1;align=center;verticalAlign=middle;resizable=0;points=[];" connectable="0" vertex="1" parent="ICcRbH34Lm_vVGwZh7KH-1">
          <mxGeometry x="-0.3026" y="1" relative="1" as="geometry">
            <mxPoint x="9" y="3" as="offset" />
          </mxGeometry>
        </mxCell>
        <mxCell id="ICcRbH34Lm_vVGwZh7KH-3" value="BEGIN" style="ellipse;whiteSpace=wrap;html=1;" vertex="1" parent="1">
          <mxGeometry x="320" y="40" width="120" height="80" as="geometry" />
        </mxCell>
        <mxCell id="ICcRbH34Lm_vVGwZh7KH-4" style="edgeStyle=orthogonalEdgeStyle;rounded=0;orthogonalLoop=1;jettySize=auto;html=1;exitX=0.5;exitY=1;exitDx=0;exitDy=0;entryX=0.5;entryY=0;entryDx=0;entryDy=0;" edge="1" parent="1" source="ICcRbH34Lm_vVGwZh7KH-5" target="ICcRbH34Lm_vVGwZh7KH-45">
          <mxGeometry relative="1" as="geometry" />
        </mxCell>
        <mxCell id="ICcRbH34Lm_vVGwZh7KH-5" value="Chạy về home ZRN&lt;br&gt;tốc độ nhanh 5000" style="rounded=0;whiteSpace=wrap;html=1;" vertex="1" parent="1">
          <mxGeometry x="320" y="170" width="120" height="60" as="geometry" />
        </mxCell>
        <mxCell id="ICcRbH34Lm_vVGwZh7KH-6" style="edgeStyle=orthogonalEdgeStyle;rounded=0;orthogonalLoop=1;jettySize=auto;html=1;exitX=0.5;exitY=1;exitDx=0;exitDy=0;entryX=0.5;entryY=0;entryDx=0;entryDy=0;" edge="1" parent="1" source="ICcRbH34Lm_vVGwZh7KH-7" target="ICcRbH34Lm_vVGwZh7KH-49">
          <mxGeometry relative="1" as="geometry" />
        </mxCell>
        <mxCell id="ICcRbH34Lm_vVGwZh7KH-7" value="Chạy ngược ra ddrvi -200 xung tốc độ chậm" style="rounded=0;whiteSpace=wrap;html=1;" vertex="1" parent="1">
          <mxGeometry x="320" y="356" width="120" height="60" as="geometry" />
        </mxCell>
        <mxCell id="ICcRbH34Lm_vVGwZh7KH-8" style="edgeStyle=orthogonalEdgeStyle;rounded=0;orthogonalLoop=1;jettySize=auto;html=1;exitX=0.5;exitY=1;exitDx=0;exitDy=0;entryX=0.5;entryY=0;entryDx=0;entryDy=0;" edge="1" parent="1" source="ICcRbH34Lm_vVGwZh7KH-51" target="ICcRbH34Lm_vVGwZh7KH-12">
          <mxGeometry relative="1" as="geometry" />
        </mxCell>
        <mxCell id="ICcRbH34Lm_vVGwZh7KH-9" value="xong" style="edgeLabel;html=1;align=center;verticalAlign=middle;resizable=0;points=[];" connectable="0" vertex="1" parent="ICcRbH34Lm_vVGwZh7KH-8">
          <mxGeometry x="-0.25" y="-2" relative="1" as="geometry">
            <mxPoint y="-1" as="offset" />
          </mxGeometry>
        </mxCell>
        <mxCell id="ICcRbH34Lm_vVGwZh7KH-10" value="Chạy ZRN với tốc độ 1000&amp;nbsp;&amp;nbsp;" style="rounded=0;whiteSpace=wrap;html=1;" vertex="1" parent="1">
          <mxGeometry x="320" y="570" width="120" height="60" as="geometry" />
        </mxCell>
        <mxCell id="ICcRbH34Lm_vVGwZh7KH-11" style="edgeStyle=orthogonalEdgeStyle;rounded=0;orthogonalLoop=1;jettySize=auto;html=1;exitX=0.5;exitY=1;exitDx=0;exitDy=0;entryX=0.5;entryY=0;entryDx=0;entryDy=0;" edge="1" parent="1" source="ICcRbH34Lm_vVGwZh7KH-12" target="ICcRbH34Lm_vVGwZh7KH-15">
          <mxGeometry relative="1" as="geometry" />
        </mxCell>
        <mxCell id="ICcRbH34Lm_vVGwZh7KH-12" value="Chạy ra ĐBĐ" style="rounded=0;whiteSpace=wrap;html=1;" vertex="1" parent="1">
          <mxGeometry x="320" y="772" width="120" height="60" as="geometry" />
        </mxCell>
        <mxCell id="ICcRbH34Lm_vVGwZh7KH-13" style="edgeStyle=orthogonalEdgeStyle;rounded=0;orthogonalLoop=1;jettySize=auto;html=1;exitX=0.5;exitY=1;exitDx=0;exitDy=0;entryX=0.5;entryY=0;entryDx=0;entryDy=0;" edge="1" parent="1" source="ICcRbH34Lm_vVGwZh7KH-15" target="ICcRbH34Lm_vVGwZh7KH-18">
          <mxGeometry relative="1" as="geometry" />
        </mxCell>
        <mxCell id="ICcRbH34Lm_vVGwZh7KH-14" value="Cóc" style="edgeLabel;html=1;align=center;verticalAlign=middle;resizable=0;points=[];" connectable="0" vertex="1" parent="ICcRbH34Lm_vVGwZh7KH-13">
          <mxGeometry x="-0.1971" y="-2" relative="1" as="geometry">
            <mxPoint x="-18" as="offset" />
          </mxGeometry>
        </mxCell>
        <mxCell id="ICcRbH34Lm_vVGwZh7KH-15" value="Start" style="ellipse;whiteSpace=wrap;html=1;" vertex="1" parent="1">
          <mxGeometry x="320" y="862" width="120" height="80" as="geometry" />
        </mxCell>
        <mxCell id="ICcRbH34Lm_vVGwZh7KH-16" style="edgeStyle=orthogonalEdgeStyle;rounded=0;orthogonalLoop=1;jettySize=auto;html=1;exitX=0.5;exitY=1;exitDx=0;exitDy=0;entryX=0.5;entryY=0;entryDx=0;entryDy=0;" edge="1" parent="1" source="ICcRbH34Lm_vVGwZh7KH-18" target="ICcRbH34Lm_vVGwZh7KH-22">
          <mxGeometry relative="1" as="geometry" />
        </mxCell>
        <mxCell id="ICcRbH34Lm_vVGwZh7KH-17" value="cb xylanh end" style="edgeLabel;html=1;align=center;verticalAlign=middle;resizable=0;points=[];" connectable="0" vertex="1" parent="ICcRbH34Lm_vVGwZh7KH-16">
          <mxGeometry x="-0.1681" y="2" relative="1" as="geometry">
            <mxPoint as="offset" />
          </mxGeometry>
        </mxCell>
        <mxCell id="ICcRbH34Lm_vVGwZh7KH-18" value="Xylanh ON" style="ellipse;whiteSpace=wrap;html=1;" vertex="1" parent="1">
          <mxGeometry x="320" y="972" width="120" height="80" as="geometry" />
        </mxCell>
        <mxCell id="ICcRbH34Lm_vVGwZh7KH-19" style="edgeStyle=orthogonalEdgeStyle;rounded=0;orthogonalLoop=1;jettySize=auto;html=1;exitX=0.5;exitY=1;exitDx=0;exitDy=0;entryX=0.5;entryY=0;entryDx=0;entryDy=0;" edge="1" parent="1" source="ICcRbH34Lm_vVGwZh7KH-22" target="ICcRbH34Lm_vVGwZh7KH-27">
          <mxGeometry relative="1" as="geometry" />
        </mxCell>
        <mxCell id="ICcRbH34Lm_vVGwZh7KH-20" style="edgeStyle=orthogonalEdgeStyle;rounded=0;orthogonalLoop=1;jettySize=auto;html=1;exitX=0.5;exitY=1;exitDx=0;exitDy=0;entryX=0.5;entryY=0;entryDx=0;entryDy=0;" edge="1" parent="1" source="ICcRbH34Lm_vVGwZh7KH-22" target="ICcRbH34Lm_vVGwZh7KH-29">
          <mxGeometry relative="1" as="geometry" />
        </mxCell>
        <mxCell id="ICcRbH34Lm_vVGwZh7KH-21" value="xong" style="edgeLabel;html=1;align=center;verticalAlign=middle;resizable=0;points=[];" connectable="0" vertex="1" parent="ICcRbH34Lm_vVGwZh7KH-20">
          <mxGeometry x="-0.9109" y="-1" relative="1" as="geometry">
            <mxPoint as="offset" />
          </mxGeometry>
        </mxCell>
        <mxCell id="ICcRbH34Lm_vVGwZh7KH-22" value="Delay 300ms" style="rounded=0;whiteSpace=wrap;html=1;" vertex="1" parent="1">
          <mxGeometry x="320" y="1082" width="120" height="60" as="geometry" />
        </mxCell>
        <mxCell id="ICcRbH34Lm_vVGwZh7KH-23" value="y0 off + m8029" style="edgeLabel;html=1;align=center;verticalAlign=middle;resizable=0;points=[];" connectable="0" vertex="1" parent="1">
          <mxGeometry x="380" y="436.00130434782614" as="geometry" />
        </mxCell>
        <mxCell id="ICcRbH34Lm_vVGwZh7KH-24" value="y0 off + m8029" style="edgeLabel;html=1;align=center;verticalAlign=middle;resizable=0;points=[];" connectable="0" vertex="1" parent="1">
          <mxGeometry x="380" y="650.0013043478261" as="geometry" />
        </mxCell>
        <mxCell id="ICcRbH34Lm_vVGwZh7KH-25" value="y0 off + m8029" style="edgeLabel;html=1;align=center;verticalAlign=middle;resizable=0;points=[];" connectable="0" vertex="1" parent="1">
          <mxGeometry x="380" y="842.0013043478261" as="geometry" />
        </mxCell>
        <mxCell id="ICcRbH34Lm_vVGwZh7KH-26" style="edgeStyle=orthogonalEdgeStyle;rounded=0;orthogonalLoop=1;jettySize=auto;html=1;exitX=0.5;exitY=1;exitDx=0;exitDy=0;entryX=0.5;entryY=0;entryDx=0;entryDy=0;" edge="1" parent="1" source="ICcRbH34Lm_vVGwZh7KH-27" target="ICcRbH34Lm_vVGwZh7KH-40">
          <mxGeometry relative="1" as="geometry" />
        </mxCell>
        <mxCell id="ICcRbH34Lm_vVGwZh7KH-27" value="Xoay phôi" style="rounded=0;whiteSpace=wrap;html=1;" vertex="1" parent="1">
          <mxGeometry x="150" y="1182" width="120" height="60" as="geometry" />
        </mxCell>
        <mxCell id="ICcRbH34Lm_vVGwZh7KH-28" style="edgeStyle=orthogonalEdgeStyle;rounded=0;orthogonalLoop=1;jettySize=auto;html=1;exitX=0.5;exitY=1;exitDx=0;exitDy=0;entryX=0.5;entryY=0;entryDx=0;entryDy=0;" edge="1" parent="1" source="ICcRbH34Lm_vVGwZh7KH-29" target="ICcRbH34Lm_vVGwZh7KH-34">
          <mxGeometry relative="1" as="geometry" />
        </mxCell>
        <mxCell id="ICcRbH34Lm_vVGwZh7KH-29" value="Khung tới ĐKT" style="rounded=0;whiteSpace=wrap;html=1;" vertex="1" parent="1">
          <mxGeometry x="480" y="1182" width="120" height="60" as="geometry" />
        </mxCell>
        <mxCell id="ICcRbH34Lm_vVGwZh7KH-30" style="edgeStyle=orthogonalEdgeStyle;rounded=0;orthogonalLoop=1;jettySize=auto;html=1;exitX=0.5;exitY=1;exitDx=0;exitDy=0;entryX=0.5;entryY=0;entryDx=0;entryDy=0;" edge="1" parent="1" source="ICcRbH34Lm_vVGwZh7KH-27" target="ICcRbH34Lm_vVGwZh7KH-41">
          <mxGeometry relative="1" as="geometry">
            <mxPoint x="88.96000000000004" y="1284.04" as="targetPoint" />
          </mxGeometry>
        </mxCell>
        <mxCell id="ICcRbH34Lm_vVGwZh7KH-31" value="y1 off + m8029" style="edgeLabel;html=1;align=center;verticalAlign=middle;resizable=0;points=[];" connectable="0" vertex="1" parent="ICcRbH34Lm_vVGwZh7KH-30">
          <mxGeometry x="-0.8906" y="-1" relative="1" as="geometry">
            <mxPoint as="offset" />
          </mxGeometry>
        </mxCell>
        <mxCell id="ICcRbH34Lm_vVGwZh7KH-32" style="edgeStyle=orthogonalEdgeStyle;rounded=0;orthogonalLoop=1;jettySize=auto;html=1;exitX=0.5;exitY=1;exitDx=0;exitDy=0;entryX=0.5;entryY=0;entryDx=0;entryDy=0;" edge="1" parent="1" source="ICcRbH34Lm_vVGwZh7KH-34" target="ICcRbH34Lm_vVGwZh7KH-37">
          <mxGeometry relative="1" as="geometry" />
        </mxCell>
        <mxCell id="ICcRbH34Lm_vVGwZh7KH-33" value="xong" style="edgeLabel;html=1;align=center;verticalAlign=middle;resizable=0;points=[];" connectable="0" vertex="1" parent="ICcRbH34Lm_vVGwZh7KH-32">
          <mxGeometry x="-0.2587" relative="1" as="geometry">
            <mxPoint as="offset" />
          </mxGeometry>
        </mxCell>
        <mxCell id="ICcRbH34Lm_vVGwZh7KH-34" value="Delay 300ms" style="rounded=0;whiteSpace=wrap;html=1;" vertex="1" parent="1">
          <mxGeometry x="480" y="1282" width="120" height="60" as="geometry" />
        </mxCell>
        <mxCell id="ICcRbH34Lm_vVGwZh7KH-35" value="y0 off + m8029" style="edgeLabel;html=1;align=center;verticalAlign=middle;resizable=0;points=[];" connectable="0" vertex="1" parent="1">
          <mxGeometry x="540" y="1262.0013043478261" as="geometry" />
        </mxCell>
        <mxCell id="ICcRbH34Lm_vVGwZh7KH-36" style="edgeStyle=orthogonalEdgeStyle;rounded=0;orthogonalLoop=1;jettySize=auto;html=1;exitX=0.5;exitY=1;exitDx=0;exitDy=0;entryX=0.5;entryY=0;entryDx=0;entryDy=0;" edge="1" parent="1" source="ICcRbH34Lm_vVGwZh7KH-37" target="ICcRbH34Lm_vVGwZh7KH-42">
          <mxGeometry relative="1" as="geometry" />
        </mxCell>
        <mxCell id="ICcRbH34Lm_vVGwZh7KH-37" value="Khung tới ĐBĐ" style="rounded=0;whiteSpace=wrap;html=1;" vertex="1" parent="1">
          <mxGeometry x="480" y="1382" width="120" height="60" as="geometry" />
        </mxCell>
        <mxCell id="ICcRbH34Lm_vVGwZh7KH-38" style="edgeStyle=orthogonalEdgeStyle;rounded=0;orthogonalLoop=1;jettySize=auto;html=1;exitX=0.5;exitY=1;exitDx=0;exitDy=0;entryX=0.5;entryY=0;entryDx=0;entryDy=0;" edge="1" parent="1" target="ICcRbH34Lm_vVGwZh7KH-18">
          <mxGeometry relative="1" as="geometry">
            <mxPoint x="540" y="1542" as="sourcePoint" />
            <Array as="points">
              <mxPoint x="540" y="1562" />
              <mxPoint x="670" y="1562" />
              <mxPoint x="670" y="952" />
              <mxPoint x="380" y="952" />
            </Array>
          </mxGeometry>
        </mxCell>
        <mxCell id="ICcRbH34Lm_vVGwZh7KH-39" value="y0 off + m8029" style="edgeLabel;html=1;align=center;verticalAlign=middle;resizable=0;points=[];" connectable="0" vertex="1" parent="1">
          <mxGeometry x="540" y="1462.0013043478261" as="geometry" />
        </mxCell>
        <mxCell id="ICcRbH34Lm_vVGwZh7KH-40" value="Dao ON" style="ellipse;whiteSpace=wrap;html=1;" vertex="1" parent="1">
          <mxGeometry x="250" y="1292" width="120" height="80" as="geometry" />
        </mxCell>
        <mxCell id="ICcRbH34Lm_vVGwZh7KH-41" value="Xylanh OFF" style="shape=parallelogram;perimeter=parallelogramPerimeter;whiteSpace=wrap;html=1;fixedSize=1;" vertex="1" parent="1">
          <mxGeometry x="30" y="1292" width="120" height="60" as="geometry" />
        </mxCell>
        <mxCell id="ICcRbH34Lm_vVGwZh7KH-42" value="Dao OFF" style="shape=parallelogram;perimeter=parallelogramPerimeter;whiteSpace=wrap;html=1;fixedSize=1;" vertex="1" parent="1">
          <mxGeometry x="480" y="1482" width="120" height="60" as="geometry" />
        </mxCell>
        <mxCell id="ICcRbH34Lm_vVGwZh7KH-43" style="edgeStyle=orthogonalEdgeStyle;rounded=0;orthogonalLoop=1;jettySize=auto;html=1;exitX=0.5;exitY=1;exitDx=0;exitDy=0;entryX=0.5;entryY=0;entryDx=0;entryDy=0;" edge="1" parent="1" source="ICcRbH34Lm_vVGwZh7KH-45" target="ICcRbH34Lm_vVGwZh7KH-7">
          <mxGeometry relative="1" as="geometry" />
        </mxCell>
        <mxCell id="ICcRbH34Lm_vVGwZh7KH-44" value="xong" style="edgeLabel;html=1;align=center;verticalAlign=middle;resizable=0;points=[];" connectable="0" vertex="1" parent="ICcRbH34Lm_vVGwZh7KH-43">
          <mxGeometry x="-0.2462" relative="1" as="geometry">
            <mxPoint as="offset" />
          </mxGeometry>
        </mxCell>
        <mxCell id="ICcRbH34Lm_vVGwZh7KH-45" value="Delay 300ms" style="rounded=0;whiteSpace=wrap;html=1;" vertex="1" parent="1">
          <mxGeometry x="320" y="270" width="120" height="60" as="geometry" />
        </mxCell>
        <mxCell id="ICcRbH34Lm_vVGwZh7KH-46" value="y0 off + m8029" style="edgeLabel;html=1;align=center;verticalAlign=middle;resizable=0;points=[];" connectable="0" vertex="1" parent="1">
          <mxGeometry x="380" y="250.00130434782614" as="geometry" />
        </mxCell>
        <mxCell id="ICcRbH34Lm_vVGwZh7KH-47" style="edgeStyle=orthogonalEdgeStyle;rounded=0;orthogonalLoop=1;jettySize=auto;html=1;exitX=0.5;exitY=1;exitDx=0;exitDy=0;entryX=0.5;entryY=0;entryDx=0;entryDy=0;" edge="1" parent="1" source="ICcRbH34Lm_vVGwZh7KH-49" target="ICcRbH34Lm_vVGwZh7KH-10">
          <mxGeometry relative="1" as="geometry" />
        </mxCell>
        <mxCell id="ICcRbH34Lm_vVGwZh7KH-48" value="xong" style="edgeLabel;html=1;align=center;verticalAlign=middle;resizable=0;points=[];" connectable="0" vertex="1" parent="ICcRbH34Lm_vVGwZh7KH-47">
          <mxGeometry x="-0.2882" y="-2" relative="1" as="geometry">
            <mxPoint as="offset" />
          </mxGeometry>
        </mxCell>
        <mxCell id="ICcRbH34Lm_vVGwZh7KH-49" value="Delay 100ms" style="rounded=0;whiteSpace=wrap;html=1;" vertex="1" parent="1">
          <mxGeometry x="320" y="470" width="120" height="60" as="geometry" />
        </mxCell>
        <mxCell id="ICcRbH34Lm_vVGwZh7KH-50" value="" style="edgeStyle=orthogonalEdgeStyle;rounded=0;orthogonalLoop=1;jettySize=auto;html=1;exitX=0.5;exitY=1;exitDx=0;exitDy=0;entryX=0.5;entryY=0;entryDx=0;entryDy=0;" edge="1" parent="1" source="ICcRbH34Lm_vVGwZh7KH-10" target="ICcRbH34Lm_vVGwZh7KH-51">
          <mxGeometry relative="1" as="geometry">
            <mxPoint x="380" y="630" as="sourcePoint" />
            <mxPoint x="380" y="772" as="targetPoint" />
          </mxGeometry>
        </mxCell>
        <mxCell id="ICcRbH34Lm_vVGwZh7KH-51" value="Delay 100ms" style="rounded=0;whiteSpace=wrap;html=1;" vertex="1" parent="1">
          <mxGeometry x="320" y="680" width="120" height="60" as="geometry" />
        </mxCell>
      </root>
    </mxGraphModel>
  </diagram>
</mxfile>
